<?xml version="1.0" encoding="UTF-8"?>
<svg width="150px" height="19px" viewBox="0 0 150 19" version="1.1" xmlns="http://www.w3.org/2000/svg" xmlns:xlink="http://www.w3.org/1999/xlink">
    <title>akkurent-proxima-logo</title>
    <g id="Page-1" stroke="none" stroke-width="1" fill="none" fill-rule="evenodd">
        <g id="akkurent-proxima-logo" transform="translate(0.781341, 0.134603)" fill="#000000" fill-rule="nonzero">
            <path d="M39.3232381,15.7031099 L40.6212381,12.4471099 L48.0572381,12.4471099 L49.3552381,15.7031099 L51.3792381,15.7031099 L45.4612381,1.02910992 L43.1952381,1.02910992 L37.2992381,15.7031099 L39.3232381,15.7031099 Z M47.5072381,10.8191099 L41.1492381,10.8191099 L44.3392381,2.65710992 L47.5072381,10.8191099 Z M55.4192381,15.7031099 L55.4192381,10.7751099 L56.8932381,9.10310992 L62.4592381,15.7031099 L64.7252381,15.7031099 L58.0812381,8.00310992 L64.1972381,1.02910992 L61.9092381,1.02910992 L55.4192381,8.61910992 L55.4192381,1.02910992 L53.5932381,1.02910992 L53.5932381,15.7031099 L55.4192381,15.7031099 Z M68.9412381,15.7031099 L68.9412381,10.7751099 L70.4152381,9.10310992 L75.9812381,15.7031099 L78.2472381,15.7031099 L71.6032381,8.00310992 L77.7192381,1.02910992 L75.4312381,1.02910992 L68.9412381,8.61910992 L68.9412381,1.02910992 L67.1152381,1.02910992 L67.1152381,15.7031099 L68.9412381,15.7031099 Z M86.6212381,15.9671099 C90.6032381,15.9671099 92.6052381,13.6351099 92.6052381,9.98310992 L92.6052381,1.02910992 L90.7792381,1.02910992 L90.7792381,9.96110992 C90.7792381,12.6451099 89.3272381,14.3391099 86.6212381,14.3391099 C83.9152381,14.3391099 82.4632381,12.6451099 82.4632381,9.96110992 L82.4632381,1.02910992 L80.6372381,1.02910992 L80.6372381,10.0051099 C80.6372381,13.6131099 82.6392381,15.9671099 86.6212381,15.9671099 Z M98.1632381,15.7031099 L98.1632381,9.87310992 L101.089238,9.87310992 L104.829238,15.7031099 L106.985238,15.7031099 L103.025238,9.71910992 C105.027238,9.54310992 106.831238,8.09110992 106.831238,5.45110992 C106.831238,2.74510992 104.917238,1.02910992 102.233238,1.02910992 L96.3372381,1.02910992 L96.3372381,15.7031099 L98.1632381,15.7031099 Z M102.013238,8.26710992 L98.1632381,8.26710992 L98.1632381,2.65710992 L102.013238,2.65710992 C103.751238,2.65710992 104.939238,3.80110992 104.939238,5.45110992 C104.939238,7.10110992 103.751238,8.26710992 102.013238,8.26710992 Z M119.627238,15.7031099 L119.627238,14.0751099 L111.839238,14.0751099 L111.839238,9.01510992 L119.473238,9.01510992 L119.473238,7.38710992 L111.839238,7.38710992 L111.839238,2.65710992 L119.627238,2.65710992 L119.627238,1.02910992 L110.013238,1.02910992 L110.013238,15.7031099 L119.627238,15.7031099 Z M124.657238,15.7031099 L124.657238,3.86710992 L133.215238,15.7031099 L134.975238,15.7031099 L134.975238,1.02910992 L133.149238,1.02910992 L133.149238,12.6231099 L124.701238,1.02910992 L122.831238,1.02910992 L122.831238,15.7031099 L124.657238,15.7031099 Z M144.163238,15.7031099 L144.163238,2.65710992 L148.827238,2.65710992 L148.827238,1.02910992 L137.695238,1.02910992 L137.695238,2.65710992 L142.337238,2.65710992 L142.337238,15.7031099 L144.163238,15.7031099 Z" id="AKKURENT"></path>
            <path d="M31.8874121,3.87304046e-06 L8.14914116,3.87304046e-06 C8.04613833,-0.000250923696 7.94348918,0.0120669747 7.84347195,0.0366881725 L7.84347195,1.03928318 L15.2834605,1.03928318 L15.2834605,5.65488827 L3.80863837,5.65488827 L3.80863837,6.7247305 L15.2834605,6.7247305 L15.2834605,11.3403356 L0,11.3403356 L0,12.4101778 L6.72472264,12.4101778 L6.72472264,16.6467531 C6.72807113,17.4219175 7.35563659,18.049483 8.13080101,18.0528315 L31.8874121,18.0528315 C32.6625765,18.049483 33.2901419,17.4219175 33.2934904,16.6467531 L33.2934904,1.40608624 C33.2901419,0.630921822 32.6625765,0.00335635639 31.8874121,3.87304046e-06 Z M32.1013805,6.7247305 L32.1013805,11.3403356 L24.7653195,11.3403356 L24.7653195,6.7247305 L32.1013805,6.7247305 Z M23.6771371,6.7247305 L23.6771371,11.3403356 L16.341076,11.3403356 L16.341076,6.7247305 L23.6771371,6.7247305 Z M7.94739948,17.0502364 L7.94739948,12.4346314 L15.2834605,12.4346314 L15.2834605,17.0502364 L7.94739948,17.0502364 Z M16.3716429,17.0502364 L16.3716429,12.4346314 L23.707704,12.4346314 L23.707704,17.0502364 L16.3716429,17.0502364 Z M24.7958864,17.0502364 L24.7958864,12.4346314 L32.1319474,12.4346314 L32.1319474,17.0502364 L24.7958864,17.0502364 Z M24.7958864,5.65488827 L24.7958864,1.03928318 L32.1319474,1.03928318 L32.1319474,5.65488827 L24.7958864,5.65488827 Z M16.3716429,5.65488827 L16.3716429,1.03928318 L23.707704,1.03928318 L23.707704,5.65488827 L16.3716429,5.65488827 Z" id="Shape"></path>
        </g>
    </g>
</svg>